<svg xmlns="http://www.w3.org/2000/svg" viewBox="0 0 566.929 755.905"><defs><clipPath id="a" clipPathUnits="userSpaceOnUse"><path d="M0 566.929h425.197V0H0Z"/></clipPath></defs><g clip-path="url(#a)" transform="matrix(1.33333 0 0 -1.33333 0 755.905)"><path d="M0 0h-345.974c-21.877 0-39.611-17.701-39.611-39.538v-487.853c0-21.837 17.734-39.538 39.611-39.538H0c21.877 0 39.611 17.701 39.611 39.538v487.853C39.611-17.701 21.877 0 0 0m0-18.807c11.471 0 20.804-9.3 20.804-20.731v-487.853c0-11.431-9.333-20.731-20.804-20.731h-345.974c-11.472 0-20.804 9.3-20.804 20.731v487.853c0 11.431 9.332 20.731 20.804 20.731z" style="fill:#231f20;fill-opacity:1;fill-rule:nonzero;stroke:none" transform="translate(385.585 566.93)"/><path d="M0 0v-96.762h-61.51V333.26H81.831v-62.059H0V56.456l46.682 3.853V3.741Z" style="fill:#231f20;fill-opacity:1;fill-rule:nonzero;stroke:none" transform="translate(301.506 166.619)"/><path d="M0 0h-61.362v-178.714L-116.63 0l-49.909-16.642 71.541-229.461-73.544-154.889 57.887-31.837 42.743 100.999 6.55-21.179v-75.985H0Z" style="fill:#231f20;fill-opacity:1;fill-rule:nonzero;stroke:none" transform="translate(210.402 499.88)"/></g></svg>