<svg xmlns="http://www.w3.org/2000/svg" viewBox="0 0 1133.859 272.125"><defs><clipPath id="a" clipPathUnits="userSpaceOnUse"><path d="M0 204.094h850.394V0H0Z"/></clipPath></defs><g clip-path="url(#a)" transform="matrix(1.33333 0 0 -1.33333 0 272.125)"><path d="M0 0h17.789v-53.101l25.795 83.984h806.81L817.887-78.208l21.792-51.324-16.455-10.303-12.675 31.577s-2.668-2.583-2.668-4.582c0-2 .083-25.412.083-25.412h-17.928V.889h18.706V-53.49l20.625 68.098s.723 1.5-1.668 1.5H55.863L27.261-79.229l21.903-50.546-16.9-10.06-12.897 32.056s-2.446-2.666-2.446-8.109v-43.548H624.3V.757h42.027v-19.108h-24.349v-70.987l13.676 1.778v-17.219l-13.12-2.111v-66.321H0z" style="fill:#000;fill-opacity:1;fill-rule:nonzero;stroke:none" transform="translate(0 173.211)"/><path d="M75.358 49.458h12.144v110.059H75.358ZM69.45 174.075h23.96c3.281 0 6.097-1.244 8.451-3.726 2.351-2.487 3.529-5.461 3.529-8.926V47.205c0-3.469-1.178-6.443-3.529-8.925-2.354-2.487-5.17-3.727-8.451-3.727H69.45c-3.39 0-6.235 1.214-8.532 3.64-2.298 2.426-3.446 5.43-3.446 9.012v114.218c0 3.578 1.148 6.585 3.446 9.011 2.297 2.428 5.142 3.641 8.532 3.641" style="fill:#000;fill-opacity:1;fill-rule:nonzero;stroke:none"/><path d="M0 0H33.523C47.676.231 58.54-1.619 66.112-5.546c4.17-2.312 6.365-5.78 6.584-10.399v-123.059H53.661v119.591c-.766 2.774-3.228 3.987-7.385 3.642v-123.233H27.241v119.591c-2.79 2.657-5.634 3.755-8.533 3.294v-122.885H0Z" style="fill:#000;fill-opacity:1;fill-rule:nonzero;stroke:none" transform="translate(113.387 173.9)"/><path d="m0 0-6.235-3.019v-7.725H7.057Zm-6.235 94.635V23.399l5.908 2.948c2.625 1.27 3.992 3.465 4.102 6.587.436 10.165.546 19.641.329 28.423C3.775 71.409 2.627 80.942.656 89.954c-.656 3.12-2.352 4.681-5.087 4.681Zm-19.035 17.852h19.035v-.174c4.594-.233 9.189-.346 13.784-.346 5.908-2.313 9.353-6.761 10.339-13.345 3.281-20.8 4.648-46.164 4.101-76.088-.109-6.473-2.297-11.326-6.564-14.56l6.729-11.787c1.312-2.313 1.968-4.678 1.968-7.104 0-2.196-.548-4.448-1.639-6.761-2.519-5.086-5.526-8.144-9.026-9.183l-38.727.344z" style="fill:#000;fill-opacity:1;fill-rule:nonzero;stroke:none" transform="translate(220.01 61.414)"/><path d="M250.652 173.901h18.706V34.897h-18.706z" style="fill:#000;fill-opacity:1;fill-rule:nonzero;stroke:none"/><path d="M0 0h19.035c9.144 0 15.893-.637 20.248-1.906 8.054-2.313 12.302-6.993 12.736-14.039v-123.059H32.984v119.591c-2.19 2.657-5.526 3.987-10.009 3.987-1.424 0-2.737-.232-3.94-.693v-122.885H0Z" style="fill:#000;fill-opacity:1;fill-rule:nonzero;stroke:none" transform="translate(280.803 173.9)"/><path d="m0 0-9.559 76.979-6.415-78.528Zm-25.821 110.59H.928L18.489-28.414H3.758L2.441-18.011l-19.875-1.734-.819-8.669h-18.889z" style="fill:#000;fill-opacity:1;fill-rule:nonzero;stroke:none" transform="translate(379.277 63.311)"/><path d="M0 0v-119.071h-19.035V0h-13.62v20.106h46.443V0Z" style="fill:#000;fill-opacity:1;fill-rule:nonzero;stroke:none" transform="translate(426.202 152.756)"/><path d="M447.49 173.901h18.71V34.897h-18.71zM495.53 49.458h12.141v110.059H495.53Zm-5.907 124.617h23.956c3.283 0 6.1-1.244 8.453-3.726 2.352-2.487 3.529-5.461 3.529-8.926V47.205c0-3.469-1.177-6.443-3.529-8.925-2.353-2.487-5.17-3.727-8.453-3.727h-23.956c-3.393 0-6.237 1.214-8.533 3.64-2.299 2.426-3.449 5.43-3.449 9.012v114.218c0 3.578 1.15 6.585 3.449 9.011 2.296 2.428 5.14 3.641 8.533 3.641" style="fill:#000;fill-opacity:1;fill-rule:nonzero;stroke:none"/><path d="M0 0h19.035c9.146 0 15.893-.637 20.25-1.906 8.056-2.313 12.3-6.993 12.738-14.039v-123.059H32.984v119.591c-2.19 2.657-5.526 3.987-10.008 3.987-1.422 0-2.738-.232-3.941-.693v-122.885H0Z" style="fill:#000;fill-opacity:1;fill-rule:nonzero;stroke:none" transform="translate(533.722 173.9)"/><path d="M0 0v-124.613h11.982V0h17.885v-126.869c0-3.466-1.176-6.44-3.528-8.926-2.353-2.483-5.17-3.726-8.45-3.726H-6.07c-3.283 0-6.101 1.243-8.453 3.726-2.353 2.486-3.525 5.46-3.525 8.926V0z" style="fill:#000;fill-opacity:1;fill-rule:nonzero;stroke:none" transform="translate(692.546 173.213)"/><path d="M0 0h19.035c9.146 0 15.893-.637 20.25-1.906 8.052-2.313 12.3-6.993 12.734-14.039v-123.057H32.984v119.589c-2.19 2.657-5.526 3.987-10.008 3.987-1.425 0-2.738-.232-3.941-.693v-122.883H0Z" style="fill:#000;fill-opacity:1;fill-rule:nonzero;stroke:none" transform="translate(730.575 174.08)"/></g></svg>